<svg t="1605438936132" class="icon" viewBox="0 0 1024 1024" version="1.1" xmlns="http://www.w3.org/2000/svg" p-id="2946" width="200" height="200"><path d="M846.933333 328.533333c-17.066667 0-32 14.933333-32 32V768c0 57.6-46.933333 104.533333-104.533333 104.533333H322.133333c-51.2 0-93.866667-42.666667-93.866666-93.866666V283.733333c0-51.2 42.666667-93.866667 93.866666-93.866666H661.333333c17.066667 0 32-14.933333 32-32s-14.933333-32-32-32H322.133333c-87.466667 0-157.866667 70.4-157.866666 157.866666v494.933334c0 87.466667 70.4 157.866667 157.866666 157.866666h388.266667c93.866667 0 168.533333-76.8 168.533333-168.533333V360.533333c0-17.066667-14.933333-32-32-32z" p-id="2947"></path><path d="M362.666667 659.2c-17.066667 0-32 14.933333-32 32s14.933333 32 32 32h354.133333c17.066667 0 32-14.933333 32-32s-14.933333-32-32-32H362.666667zM499.2 529.066667c6.4 6.4 14.933333 8.533333 21.333333 8.533333 8.533333 0 17.066667-4.266667 23.466667-10.666667L870.4 189.866667c12.8-12.8 12.8-32 0-44.8-12.8-12.8-32-12.8-44.8 0L497.066667 484.266667c-10.666667 12.8-10.666667 32 2.133333 44.8z" p-id="2948"></path></svg>